<svg width="1092" height="748" viewBox="0 0 1092 748" fill="none" xmlns="http://www.w3.org/2000/svg">
<rect width="1092" height="748" rx="20" fill="black"/>
<path d="M83.32 124V94.2H87.24V120.4H100.32V124H83.32ZM114.526 124.48C112.446 124.48 110.566 124 108.886 123.04C107.206 122.053 105.873 120.707 104.886 119C103.9 117.293 103.406 115.36 103.406 113.2C103.406 111.04 103.886 109.12 104.846 107.44C105.833 105.76 107.166 104.427 108.846 103.44C110.526 102.453 112.42 101.96 114.526 101.96C116.606 101.96 118.486 102.453 120.166 103.44C121.846 104.4 123.166 105.72 124.126 107.4C125.113 109.08 125.606 111.013 125.606 113.2C125.606 115.387 125.1 117.333 124.086 119.04C123.073 120.72 121.726 122.053 120.046 123.04C118.393 124 116.553 124.48 114.526 124.48ZM114.526 120.88C115.86 120.88 117.06 120.547 118.126 119.88C119.22 119.213 120.073 118.293 120.686 117.12C121.326 115.947 121.646 114.64 121.646 113.2C121.646 111.733 121.326 110.44 120.686 109.32C120.073 108.173 119.22 107.267 118.126 106.6C117.06 105.907 115.86 105.56 114.526 105.56C113.166 105.56 111.94 105.907 110.846 106.6C109.78 107.267 108.926 108.173 108.286 109.32C107.646 110.44 107.326 111.733 107.326 113.2C107.326 114.64 107.646 115.947 108.286 117.12C108.926 118.293 109.78 119.213 110.846 119.88C111.94 120.547 113.166 120.88 114.526 120.88ZM140.738 132.8C139.218 132.8 137.805 132.56 136.498 132.08C135.218 131.6 134.111 130.933 133.178 130.08C132.271 129.253 131.578 128.28 131.098 127.16L134.578 125.56C134.951 126.573 135.658 127.427 136.698 128.12C137.765 128.84 139.098 129.2 140.698 129.2C141.925 129.2 143.031 128.96 144.018 128.48C145.031 128.027 145.831 127.333 146.418 126.4C147.005 125.493 147.298 124.387 147.298 123.08V118.24L147.978 118.96C147.231 120.427 146.151 121.547 144.738 122.32C143.351 123.093 141.818 123.48 140.138 123.48C138.111 123.48 136.298 123.013 134.698 122.08C133.098 121.12 131.845 119.827 130.938 118.2C130.031 116.547 129.578 114.72 129.578 112.72C129.578 110.693 130.031 108.867 130.938 107.24C131.845 105.613 133.085 104.333 134.658 103.4C136.258 102.44 138.071 101.96 140.098 101.96C141.778 101.96 143.298 102.347 144.658 103.12C146.045 103.867 147.151 104.907 147.978 106.24L147.418 107.24V102.44H151.058V123.08C151.058 124.947 150.618 126.613 149.738 128.08C148.858 129.547 147.631 130.693 146.058 131.52C144.511 132.373 142.738 132.8 140.738 132.8ZM140.458 119.88C141.738 119.88 142.885 119.56 143.898 118.92C144.938 118.28 145.765 117.427 146.378 116.36C146.991 115.267 147.298 114.053 147.298 112.72C147.298 111.413 146.991 110.213 146.378 109.12C145.765 108.027 144.938 107.16 143.898 106.52C142.885 105.88 141.738 105.56 140.458 105.56C139.151 105.56 137.965 105.88 136.898 106.52C135.831 107.16 134.991 108.027 134.378 109.12C133.791 110.187 133.498 111.387 133.498 112.72C133.498 114.053 133.791 115.267 134.378 116.36C134.991 117.427 135.818 118.28 136.858 118.92C137.925 119.56 139.125 119.88 140.458 119.88ZM167.065 124.48C164.985 124.48 163.105 124 161.425 123.04C159.745 122.053 158.412 120.707 157.425 119C156.439 117.293 155.945 115.36 155.945 113.2C155.945 111.04 156.425 109.12 157.385 107.44C158.372 105.76 159.705 104.427 161.385 103.44C163.065 102.453 164.959 101.96 167.065 101.96C169.145 101.96 171.025 102.453 172.705 103.44C174.385 104.4 175.705 105.72 176.665 107.4C177.652 109.08 178.145 111.013 178.145 113.2C178.145 115.387 177.639 117.333 176.625 119.04C175.612 120.72 174.265 122.053 172.585 123.04C170.932 124 169.092 124.48 167.065 124.48ZM167.065 120.88C168.399 120.88 169.599 120.547 170.665 119.88C171.759 119.213 172.612 118.293 173.225 117.12C173.865 115.947 174.185 114.64 174.185 113.2C174.185 111.733 173.865 110.44 173.225 109.32C172.612 108.173 171.759 107.267 170.665 106.6C169.599 105.907 168.399 105.56 167.065 105.56C165.705 105.56 164.479 105.907 163.385 106.6C162.319 107.267 161.465 108.173 160.825 109.32C160.185 110.44 159.865 111.733 159.865 113.2C159.865 114.64 160.185 115.947 160.825 117.12C161.465 118.293 162.319 119.213 163.385 119.88C164.479 120.547 165.705 120.88 167.065 120.88Z" fill="#E1E1E6"/>
<path d="M98 184C96.5964 184 95.2303 184.161 93.9197 184.465C87.255 186.009 82.0094 191.255 80.4652 197.919C80.1606 199.23 80 200.596 80 202C80 211.941 88.0589 220 98 220C99.4036 220 100.77 219.839 102.081 219.535C108.745 217.991 113.991 212.746 115.535 206.082C115.84 204.771 116.001 203.404 116.001 202C116.001 192.059 107.941 184 98 184ZM98 213.272C96.6714 213.272 95.3969 213.043 94.2135 212.62C91.0341 211.487 88.5141 208.967 87.3802 205.787C86.9578 204.604 86.7282 203.329 86.7282 202C86.7282 195.774 91.7744 190.728 98 190.728C99.3286 190.728 100.603 190.957 101.786 191.38C104.966 192.513 107.487 195.033 108.62 198.213C109.043 199.396 109.272 200.671 109.272 202C109.272 208.226 104.226 213.272 98 213.272Z" fill="url(#paint0_linear_2001_1861)"/>
<path d="M97.9999 194.735C93.9879 194.735 90.7349 197.988 90.7349 202C90.7349 206.012 93.9879 209.265 97.9999 209.265C102.012 209.265 105.265 206.012 105.265 202C105.265 197.988 102.013 194.735 97.9999 194.735ZM97.9999 206.393C95.5742 206.393 93.607 204.426 93.607 202C93.607 199.574 95.5742 197.607 97.9999 197.607C100.426 197.607 102.393 199.574 102.393 202C102.393 204.426 100.426 206.393 97.9999 206.393Z" fill="#FEFCFE"/>
<path d="M101.786 191.38C100.603 190.957 99.3285 190.728 97.9999 190.728C91.7743 190.728 86.7281 195.774 86.7281 202C86.7281 203.329 86.9577 204.604 87.3801 205.787C85.9417 205.244 84.5929 204.393 83.435 203.235C81.9156 201.716 80.9256 199.867 80.4651 197.919C82.0093 191.255 87.2549 186.009 93.9196 184.465C95.8674 184.926 97.7154 185.916 99.2348 187.435C100.392 188.592 101.243 189.941 101.786 191.38Z" fill="url(#paint1_linear_2001_1861)"/>
<path d="M115.535 206.082C113.99 212.746 108.745 217.991 102.081 219.535C100.133 219.074 98.285 218.084 96.7656 216.565C95.6076 215.407 94.7569 214.058 94.2134 212.62C95.3968 213.043 96.6712 213.272 97.9999 213.272C104.225 213.272 109.272 208.226 109.272 202C109.272 200.671 109.043 199.396 108.62 198.213C110.058 198.756 111.407 199.607 112.565 200.765C114.084 202.284 115.075 204.134 115.535 206.082Z" fill="url(#paint2_linear_2001_1861)"/>
<path d="M89.0964 214.671C91.1769 214.671 92.8635 212.985 92.8635 210.904C92.8635 208.824 91.1769 207.137 89.0964 207.137C87.0159 207.137 85.3293 208.824 85.3293 210.904C85.3293 212.985 87.0159 214.671 89.0964 214.671Z" fill="url(#paint3_linear_2001_1861)"/>
<path d="M106.937 196.831C109.017 196.831 110.704 195.144 110.704 193.064C110.704 190.983 109.017 189.297 106.937 189.297C104.856 189.297 103.17 190.983 103.17 193.064C103.17 195.144 104.856 196.831 106.937 196.831Z" fill="url(#paint4_linear_2001_1861)"/>
<path d="M194.76 198.609V200.597H188.489V198.609H194.76ZM190.037 195.995H192.608V206.237C192.608 206.582 192.66 206.847 192.765 207.032C192.873 207.212 193.016 207.335 193.191 207.401C193.366 207.468 193.56 207.501 193.773 207.501C193.934 207.501 194.081 207.489 194.213 207.465C194.351 207.442 194.455 207.42 194.526 207.401L194.959 209.411C194.822 209.459 194.625 209.511 194.37 209.567C194.119 209.624 193.811 209.657 193.446 209.667C192.802 209.686 192.222 209.589 191.706 209.376C191.19 209.158 190.781 208.822 190.478 208.367C190.179 207.913 190.033 207.344 190.037 206.663V195.995Z" fill="#D4D4D8"/>
<path d="M184.098 209.518V198.609H186.669V209.518H184.098ZM185.391 197.06C184.983 197.06 184.633 196.925 184.34 196.656C184.046 196.381 183.899 196.052 183.899 195.668C183.899 195.28 184.046 194.951 184.34 194.681C184.633 194.406 184.983 194.269 185.391 194.269C185.803 194.269 186.153 194.406 186.442 194.681C186.735 194.951 186.882 195.28 186.882 195.668C186.882 196.052 186.735 196.381 186.442 196.656C186.153 196.925 185.803 197.06 185.391 197.06Z" fill="#D4D4D8"/>
<path d="M171.614 209.518V194.972H174.185V200.413H174.292C174.424 200.147 174.611 199.866 174.853 199.567C175.094 199.264 175.421 199.006 175.833 198.793C176.245 198.576 176.77 198.467 177.409 198.467C178.252 198.467 179.012 198.682 179.689 199.113C180.371 199.539 180.911 200.171 181.309 201.009C181.711 201.843 181.912 202.865 181.912 204.077C181.912 205.275 181.716 206.293 181.323 207.131C180.93 207.969 180.395 208.609 179.718 209.049C179.041 209.489 178.274 209.71 177.417 209.71C176.792 209.71 176.273 209.605 175.861 209.397C175.449 209.189 175.118 208.938 174.867 208.644C174.621 208.346 174.429 208.064 174.292 207.799H174.142V209.518H171.614ZM174.135 204.063C174.135 204.769 174.235 205.387 174.434 205.917C174.637 206.447 174.928 206.861 175.307 207.16C175.691 207.453 176.155 207.6 176.699 207.6C177.267 207.6 177.743 207.449 178.127 207.146C178.51 206.838 178.799 206.419 178.993 205.888C179.192 205.353 179.292 204.745 179.292 204.063C179.292 203.386 179.195 202.785 179 202.259C178.806 201.734 178.517 201.322 178.134 201.023C177.75 200.725 177.272 200.576 176.699 200.576C176.15 200.576 175.684 200.72 175.3 201.009C174.917 201.298 174.625 201.703 174.427 202.224C174.232 202.745 174.135 203.358 174.135 204.063Z" fill="#D4D4D8"/>
<path d="M163.571 209.518V198.609H166.064V200.427H166.177C166.376 199.797 166.717 199.312 167.2 198.971C167.688 198.625 168.244 198.452 168.869 198.452C169.011 198.452 169.17 198.459 169.345 198.474C169.525 198.483 169.674 198.5 169.792 198.523V200.888C169.683 200.851 169.511 200.817 169.274 200.789C169.042 200.756 168.817 200.739 168.599 200.739C168.13 200.739 167.709 200.841 167.335 201.045C166.966 201.244 166.674 201.521 166.461 201.876C166.248 202.231 166.142 202.64 166.142 203.104V209.518H163.571Z" fill="#D4D4D8"/>
<path d="M156.161 209.731C155.096 209.731 154.173 209.496 153.391 209.028C152.61 208.559 152.004 207.903 151.573 207.06C151.147 206.218 150.934 205.233 150.934 204.106C150.934 202.979 151.147 201.992 151.573 201.144C152.004 200.297 152.61 199.638 153.391 199.17C154.173 198.701 155.096 198.467 156.161 198.467C157.227 198.467 158.15 198.701 158.931 199.17C159.712 199.638 160.316 200.297 160.742 201.144C161.173 201.992 161.389 202.979 161.389 204.106C161.389 205.233 161.173 206.218 160.742 207.06C160.316 207.903 159.712 208.559 158.931 209.028C158.15 209.496 157.227 209.731 156.161 209.731ZM156.176 207.671C156.753 207.671 157.236 207.513 157.624 207.195C158.013 206.873 158.302 206.442 158.491 205.903C158.685 205.363 158.782 204.762 158.782 204.099C158.782 203.431 158.685 202.827 158.491 202.288C158.302 201.743 158.013 201.31 157.624 200.988C157.236 200.666 156.753 200.505 156.176 200.505C155.584 200.505 155.091 200.666 154.698 200.988C154.31 201.31 154.019 201.743 153.825 202.288C153.635 202.827 153.541 203.431 153.541 204.099C153.541 204.762 153.635 205.363 153.825 205.903C154.019 206.442 154.31 206.873 154.698 207.195C155.091 207.513 155.584 207.671 156.176 207.671Z" fill="#D4D4D8"/>
<path d="M147.186 209.674C146.755 209.674 146.385 209.522 146.078 209.219C145.77 208.916 145.618 208.547 145.623 208.111C145.618 207.685 145.77 207.321 146.078 207.018C146.385 206.715 146.755 206.563 147.186 206.563C147.602 206.563 147.965 206.715 148.272 207.018C148.585 207.321 148.743 207.685 148.748 208.111C148.743 208.4 148.668 208.663 148.521 208.9C148.379 209.137 148.189 209.326 147.953 209.468C147.721 209.605 147.465 209.674 147.186 209.674Z" fill="#D4D4D8"/>
<path d="M135.986 203.126V209.518H133.415V198.609H135.872V200.462H136C136.251 199.852 136.651 199.366 137.2 199.006C137.754 198.647 138.438 198.467 139.253 198.467C140.005 198.467 140.661 198.628 141.22 198.95C141.783 199.272 142.219 199.738 142.527 200.349C142.839 200.96 142.993 201.701 142.988 202.572V209.518H140.417V202.969C140.417 202.24 140.228 201.67 139.849 201.258C139.475 200.846 138.957 200.64 138.294 200.64C137.844 200.64 137.444 200.739 137.094 200.938C136.748 201.132 136.476 201.414 136.277 201.783C136.083 202.153 135.986 202.6 135.986 203.126Z" fill="#D4D4D8"/>
<path d="M128.2 209.518V198.609H130.771V209.518H128.2ZM129.492 197.06C129.085 197.06 128.735 196.925 128.441 196.656C128.148 196.381 128.001 196.052 128.001 195.668C128.001 195.28 128.148 194.951 128.441 194.681C128.735 194.406 129.085 194.269 129.492 194.269C129.904 194.269 130.255 194.406 130.543 194.681C130.837 194.951 130.984 195.28 130.984 195.668C130.984 196.052 130.837 196.381 130.543 196.656C130.255 196.925 129.904 197.06 129.492 197.06Z" fill="#D4D4D8"/>
<g clip-path="url(#clip0_2001_1861)">
<path d="M480 268H80V668H480V268Z" fill="#09090B"/>
<path d="M280 363.107C271.82 363.107 263.86 364.043 256.222 365.818C217.385 374.816 186.816 405.385 177.818 444.218C176.043 451.86 175.107 459.821 175.107 468C175.107 525.931 222.069 572.893 280 572.893C288.179 572.893 296.14 571.957 303.781 570.182C342.615 561.184 373.184 530.619 382.186 491.789C383.961 484.148 384.897 476.183 384.897 468C384.897 410.069 337.931 363.107 280 363.107ZM280 533.689C272.257 533.689 264.831 532.351 257.935 529.89C239.407 523.282 224.722 508.597 218.114 490.069C215.653 483.173 214.315 475.743 214.315 468C214.315 431.721 243.721 402.311 280 402.311C287.742 402.311 295.169 403.649 302.065 406.11C320.593 412.718 335.282 427.403 341.89 445.931C344.351 452.827 345.689 460.257 345.689 468C345.689 504.279 316.279 533.689 280 533.689Z" fill="url(#paint5_linear_2001_1861)"/>
<path d="M280 425.664C256.62 425.664 237.664 444.62 237.664 468C237.664 491.38 256.62 510.336 280 510.336C303.38 510.336 322.336 491.38 322.336 468C322.336 444.62 303.384 425.664 280 425.664ZM280 493.599C265.864 493.599 254.401 482.139 254.401 468C254.401 453.861 265.864 442.401 280 442.401C294.136 442.401 305.599 453.861 305.599 468C305.599 482.139 294.139 493.599 280 493.599Z" fill="#FEFCFE"/>
<path d="M302.065 406.11C295.169 403.649 287.743 402.311 280 402.311C243.721 402.311 214.315 431.721 214.315 468C214.315 475.743 215.653 483.173 218.114 490.069C209.732 486.902 201.872 481.944 195.124 475.197C186.27 466.342 180.501 455.573 177.818 444.218C186.816 405.385 217.385 374.816 256.222 365.818C267.573 368.501 278.342 374.27 287.196 383.124C293.94 389.868 298.898 397.728 302.065 406.11Z" fill="url(#paint6_linear_2001_1861)"/>
<path d="M382.186 491.789C373.184 530.619 342.615 561.184 303.781 570.182C292.431 567.499 281.662 561.73 272.807 552.876C266.059 546.128 261.102 538.268 257.935 529.89C264.831 532.351 272.257 533.689 280 533.689C316.279 533.689 345.689 504.279 345.689 468C345.689 460.257 344.351 452.827 341.89 445.931C350.268 449.098 358.128 454.056 364.876 460.804C373.73 469.658 379.503 480.435 382.186 491.789Z" fill="url(#paint7_linear_2001_1861)"/>
<path d="M228.115 541.841C240.239 541.841 250.067 532.013 250.067 519.889C250.067 507.765 240.239 497.937 228.115 497.937C215.991 497.937 206.163 507.765 206.163 519.889C206.163 532.013 215.991 541.841 228.115 541.841Z" fill="url(#paint8_linear_2001_1861)"/>
<path d="M332.08 437.876C344.204 437.876 354.032 428.048 354.032 415.924C354.032 403.8 344.204 393.972 332.08 393.972C319.956 393.972 310.128 403.8 310.128 415.924C310.128 428.048 319.956 437.876 332.08 437.876Z" fill="url(#paint9_linear_2001_1861)"/>
</g>
<defs>
<linearGradient id="paint0_linear_2001_1861" x1="110.556" y1="190.136" x2="85.8353" y2="213.495" gradientUnits="userSpaceOnUse">
<stop stop-color="#F38856"/>
<stop offset="0.23" stop-color="#F0625C"/>
<stop offset="1" stop-color="#5C3DAB"/>
</linearGradient>
<linearGradient id="paint1_linear_2001_1861" x1="96.8607" y1="187.052" x2="82.7998" y2="201.037" gradientUnits="userSpaceOnUse">
<stop stop-color="#F67986"/>
<stop offset="1" stop-color="#8951BA"/>
</linearGradient>
<linearGradient id="paint2_linear_2001_1861" x1="112.942" y1="203.22" x2="98.8814" y2="217.205" gradientUnits="userSpaceOnUse">
<stop stop-color="#F67986"/>
<stop offset="1" stop-color="#8951BA"/>
</linearGradient>
<linearGradient id="paint3_linear_2001_1861" x1="91.8467" y1="208.331" x2="86.3454" y2="213.478" gradientUnits="userSpaceOnUse">
<stop stop-color="#A267B9"/>
<stop offset="1" stop-color="#704BB4"/>
</linearGradient>
<linearGradient id="paint4_linear_2001_1861" x1="109.227" y1="190.92" x2="105.471" y2="194.435" gradientUnits="userSpaceOnUse">
<stop stop-color="#F7A8A5"/>
<stop offset="0.97" stop-color="#D074C4"/>
<stop offset="1" stop-color="#CF76A9"/>
</linearGradient>
<linearGradient id="paint5_linear_2001_1861" x1="353.166" y1="398.863" x2="209.112" y2="534.988" gradientUnits="userSpaceOnUse">
<stop stop-color="#F38856"/>
<stop offset="0.23" stop-color="#F0625C"/>
<stop offset="1" stop-color="#5C3DAB"/>
</linearGradient>
<linearGradient id="paint6_linear_2001_1861" x1="273.361" y1="380.889" x2="191.423" y2="462.387" gradientUnits="userSpaceOnUse">
<stop stop-color="#F67986"/>
<stop offset="1" stop-color="#8951BA"/>
</linearGradient>
<linearGradient id="paint7_linear_2001_1861" x1="367.075" y1="475.107" x2="285.137" y2="556.608" gradientUnits="userSpaceOnUse">
<stop stop-color="#F67986"/>
<stop offset="1" stop-color="#8951BA"/>
</linearGradient>
<linearGradient id="paint8_linear_2001_1861" x1="244.142" y1="504.891" x2="212.084" y2="534.886" gradientUnits="userSpaceOnUse">
<stop stop-color="#A267B9"/>
<stop offset="1" stop-color="#704BB4"/>
</linearGradient>
<linearGradient id="paint9_linear_2001_1861" x1="345.424" y1="403.434" x2="323.538" y2="423.916" gradientUnits="userSpaceOnUse">
<stop stop-color="#F7A8A5"/>
<stop offset="0.97" stop-color="#D074C4"/>
<stop offset="1" stop-color="#CF76A9"/>
</linearGradient>
<clipPath id="clip0_2001_1861">
<rect x="80" y="268" width="400" height="400" rx="64" fill="white"/>
</clipPath>
</defs>
</svg>
